<mxfile host="app.diagrams.net" modified="2020-10-22T19:43:00.379Z" agent="5.0 (Macintosh; Intel Mac OS X 10_15_7) AppleWebKit/605.1.15 (KHTML, like Gecko) Version/14.0 Safari/605.1.15" etag="bQG_h7GAhqPiDFYjFUdT" version="13.8.1" type="github">
  <diagram id="R2lEEEUBdFMjLlhIrx00" name="Page-1">
    <mxGraphModel dx="990" dy="508" grid="1" gridSize="10" guides="1" tooltips="1" connect="1" arrows="1" fold="1" page="1" pageScale="1" pageWidth="850" pageHeight="1100" math="0" shadow="0" extFonts="Permanent Marker^https://fonts.googleapis.com/css?family=Permanent+Marker">
      <root>
        <mxCell id="0" />
        <mxCell id="1" parent="0" />
        <mxCell id="ns8veMdd_7WvEedU-JZv-5" style="edgeStyle=orthogonalEdgeStyle;rounded=0;orthogonalLoop=1;jettySize=auto;html=1;exitX=0;exitY=0.25;exitDx=0;exitDy=0;entryX=0.5;entryY=0;entryDx=0;entryDy=0;" parent="1" source="C-vyLk0tnHw3VtMMgP7b-2" target="ns8veMdd_7WvEedU-JZv-6" edge="1">
          <mxGeometry relative="1" as="geometry">
            <mxPoint x="40" y="370" as="targetPoint" />
          </mxGeometry>
        </mxCell>
        <mxCell id="C-vyLk0tnHw3VtMMgP7b-2" value="Buyers" style="shape=table;startSize=30;container=1;collapsible=1;childLayout=tableLayout;fixedRows=1;rowLines=0;fontStyle=1;align=center;resizeLast=1;" parent="1" vertex="1">
          <mxGeometry x="250" y="200" width="150" height="80" as="geometry" />
        </mxCell>
        <mxCell id="C-vyLk0tnHw3VtMMgP7b-3" value="" style="shape=partialRectangle;collapsible=0;dropTarget=0;pointerEvents=0;fillColor=none;points=[[0,0.5],[1,0.5]];portConstraint=eastwest;top=0;left=0;right=0;bottom=1;" parent="C-vyLk0tnHw3VtMMgP7b-2" vertex="1">
          <mxGeometry y="30" width="150" height="30" as="geometry" />
        </mxCell>
        <mxCell id="C-vyLk0tnHw3VtMMgP7b-4" value="FK" style="shape=partialRectangle;overflow=hidden;connectable=0;fillColor=none;top=0;left=0;bottom=0;right=0;fontStyle=1;" parent="C-vyLk0tnHw3VtMMgP7b-3" vertex="1">
          <mxGeometry width="30" height="30" as="geometry" />
        </mxCell>
        <mxCell id="C-vyLk0tnHw3VtMMgP7b-5" value="userID" style="shape=partialRectangle;overflow=hidden;connectable=0;fillColor=none;top=0;left=0;bottom=0;right=0;align=left;spacingLeft=6;fontStyle=5;" parent="C-vyLk0tnHw3VtMMgP7b-3" vertex="1">
          <mxGeometry x="30" width="120" height="30" as="geometry" />
        </mxCell>
        <mxCell id="C-vyLk0tnHw3VtMMgP7b-6" value="" style="shape=partialRectangle;collapsible=0;dropTarget=0;pointerEvents=0;fillColor=none;points=[[0,0.5],[1,0.5]];portConstraint=eastwest;top=0;left=0;right=0;bottom=0;" parent="C-vyLk0tnHw3VtMMgP7b-2" vertex="1">
          <mxGeometry y="60" width="150" height="20" as="geometry" />
        </mxCell>
        <mxCell id="C-vyLk0tnHw3VtMMgP7b-7" value="" style="shape=partialRectangle;overflow=hidden;connectable=0;fillColor=none;top=0;left=0;bottom=0;right=0;" parent="C-vyLk0tnHw3VtMMgP7b-6" vertex="1">
          <mxGeometry width="30" height="20" as="geometry" />
        </mxCell>
        <mxCell id="C-vyLk0tnHw3VtMMgP7b-8" value="" style="shape=partialRectangle;overflow=hidden;connectable=0;fillColor=none;top=0;left=0;bottom=0;right=0;align=left;spacingLeft=6;" parent="C-vyLk0tnHw3VtMMgP7b-6" vertex="1">
          <mxGeometry x="30" width="120" height="20" as="geometry" />
        </mxCell>
        <mxCell id="6a3gbyVTUJdRKcO8Yb8x-24" value="Sellers" style="shape=table;startSize=30;container=1;collapsible=1;childLayout=tableLayout;fixedRows=1;rowLines=0;fontStyle=1;align=center;resizeLast=1;" parent="1" vertex="1">
          <mxGeometry x="450" y="200" width="150" height="80" as="geometry" />
        </mxCell>
        <mxCell id="6a3gbyVTUJdRKcO8Yb8x-25" value="" style="shape=partialRectangle;collapsible=0;dropTarget=0;pointerEvents=0;fillColor=none;points=[[0,0.5],[1,0.5]];portConstraint=eastwest;top=0;left=0;right=0;bottom=1;" parent="6a3gbyVTUJdRKcO8Yb8x-24" vertex="1">
          <mxGeometry y="30" width="150" height="30" as="geometry" />
        </mxCell>
        <mxCell id="6a3gbyVTUJdRKcO8Yb8x-26" value="FK" style="shape=partialRectangle;overflow=hidden;connectable=0;fillColor=none;top=0;left=0;bottom=0;right=0;fontStyle=1;" parent="6a3gbyVTUJdRKcO8Yb8x-25" vertex="1">
          <mxGeometry width="30" height="30" as="geometry" />
        </mxCell>
        <mxCell id="6a3gbyVTUJdRKcO8Yb8x-27" value="userID" style="shape=partialRectangle;overflow=hidden;connectable=0;fillColor=none;top=0;left=0;bottom=0;right=0;align=left;spacingLeft=6;fontStyle=5;" parent="6a3gbyVTUJdRKcO8Yb8x-25" vertex="1">
          <mxGeometry x="30" width="120" height="30" as="geometry" />
        </mxCell>
        <mxCell id="6a3gbyVTUJdRKcO8Yb8x-28" value="" style="shape=partialRectangle;collapsible=0;dropTarget=0;pointerEvents=0;fillColor=none;points=[[0,0.5],[1,0.5]];portConstraint=eastwest;top=0;left=0;right=0;bottom=0;" parent="6a3gbyVTUJdRKcO8Yb8x-24" vertex="1">
          <mxGeometry y="60" width="150" height="20" as="geometry" />
        </mxCell>
        <mxCell id="6a3gbyVTUJdRKcO8Yb8x-29" value="" style="shape=partialRectangle;overflow=hidden;connectable=0;fillColor=none;top=0;left=0;bottom=0;right=0;" parent="6a3gbyVTUJdRKcO8Yb8x-28" vertex="1">
          <mxGeometry width="30" height="20" as="geometry" />
        </mxCell>
        <mxCell id="6a3gbyVTUJdRKcO8Yb8x-30" value="" style="shape=partialRectangle;overflow=hidden;connectable=0;fillColor=none;top=0;left=0;bottom=0;right=0;align=left;spacingLeft=6;" parent="6a3gbyVTUJdRKcO8Yb8x-28" vertex="1">
          <mxGeometry x="30" width="120" height="20" as="geometry" />
        </mxCell>
        <mxCell id="6a3gbyVTUJdRKcO8Yb8x-32" value="" style="strokeWidth=2;html=1;shape=mxgraph.flowchart.annotation_2;align=left;labelPosition=right;pointerEvents=1;rotation=90;" parent="1" vertex="1">
          <mxGeometry x="401.5" y="51" width="50" height="250" as="geometry" />
        </mxCell>
        <mxCell id="C-vyLk0tnHw3VtMMgP7b-23" value="Users" style="shape=table;startSize=30;container=1;collapsible=1;childLayout=tableLayout;fixedRows=1;rowLines=0;fontStyle=1;align=center;resizeLast=1;" parent="1" vertex="1">
          <mxGeometry x="340" y="10" width="170" height="140" as="geometry">
            <mxRectangle x="340" y="20" width="70" height="30" as="alternateBounds" />
          </mxGeometry>
        </mxCell>
        <mxCell id="C-vyLk0tnHw3VtMMgP7b-24" value="" style="shape=partialRectangle;collapsible=0;dropTarget=0;pointerEvents=0;fillColor=none;points=[[0,0.5],[1,0.5]];portConstraint=eastwest;top=0;left=0;right=0;bottom=1;" parent="C-vyLk0tnHw3VtMMgP7b-23" vertex="1">
          <mxGeometry y="30" width="170" height="30" as="geometry" />
        </mxCell>
        <mxCell id="C-vyLk0tnHw3VtMMgP7b-25" value="PK" style="shape=partialRectangle;overflow=hidden;connectable=0;fillColor=none;top=0;left=0;bottom=0;right=0;fontStyle=1;" parent="C-vyLk0tnHw3VtMMgP7b-24" vertex="1">
          <mxGeometry width="30" height="30" as="geometry" />
        </mxCell>
        <mxCell id="C-vyLk0tnHw3VtMMgP7b-26" value="userID" style="shape=partialRectangle;overflow=hidden;connectable=0;fillColor=none;top=0;left=0;bottom=0;right=0;align=left;spacingLeft=6;fontStyle=5;" parent="C-vyLk0tnHw3VtMMgP7b-24" vertex="1">
          <mxGeometry x="30" width="140" height="30" as="geometry" />
        </mxCell>
        <mxCell id="C-vyLk0tnHw3VtMMgP7b-27" value="" style="shape=partialRectangle;collapsible=0;dropTarget=0;pointerEvents=0;fillColor=none;points=[[0,0.5],[1,0.5]];portConstraint=eastwest;top=0;left=0;right=0;bottom=0;" parent="C-vyLk0tnHw3VtMMgP7b-23" vertex="1">
          <mxGeometry y="60" width="170" height="70" as="geometry" />
        </mxCell>
        <mxCell id="C-vyLk0tnHw3VtMMgP7b-28" value="" style="shape=partialRectangle;overflow=hidden;connectable=0;fillColor=none;top=0;left=0;bottom=0;right=0;" parent="C-vyLk0tnHw3VtMMgP7b-27" vertex="1">
          <mxGeometry width="30" height="70" as="geometry" />
        </mxCell>
        <mxCell id="C-vyLk0tnHw3VtMMgP7b-29" value="email&#xa;password&#xa;signUpDate&#xa;firstName&#xa;lastName" style="shape=partialRectangle;overflow=hidden;connectable=0;fillColor=none;top=0;left=0;bottom=0;right=0;align=left;spacingLeft=6;" parent="C-vyLk0tnHw3VtMMgP7b-27" vertex="1">
          <mxGeometry x="30" width="140" height="70" as="geometry" />
        </mxCell>
        <mxCell id="6a3gbyVTUJdRKcO8Yb8x-43" style="edgeStyle=orthogonalEdgeStyle;rounded=0;orthogonalLoop=1;jettySize=auto;html=1;exitX=0;exitY=0.5;exitDx=0;exitDy=0;" parent="1" source="6a3gbyVTUJdRKcO8Yb8x-34" edge="1">
          <mxGeometry relative="1" as="geometry">
            <mxPoint x="632" y="440" as="targetPoint" />
          </mxGeometry>
        </mxCell>
        <mxCell id="6a3gbyVTUJdRKcO8Yb8x-34" value="Creates&lt;br&gt;0..* / 1&amp;nbsp;" style="rhombus;whiteSpace=wrap;html=1;" parent="1" vertex="1">
          <mxGeometry x="720" y="400" width="80" height="80" as="geometry" />
        </mxCell>
        <mxCell id="6a3gbyVTUJdRKcO8Yb8x-35" style="edgeStyle=orthogonalEdgeStyle;rounded=0;orthogonalLoop=1;jettySize=auto;html=1;exitX=1;exitY=0.5;exitDx=0;exitDy=0;entryX=1;entryY=0.5;entryDx=0;entryDy=0;" parent="1" source="6a3gbyVTUJdRKcO8Yb8x-25" target="6a3gbyVTUJdRKcO8Yb8x-34" edge="1">
          <mxGeometry relative="1" as="geometry">
            <Array as="points">
              <mxPoint x="800" y="245" />
              <mxPoint x="800" y="390" />
            </Array>
          </mxGeometry>
        </mxCell>
        <mxCell id="6a3gbyVTUJdRKcO8Yb8x-47" style="edgeStyle=orthogonalEdgeStyle;rounded=0;orthogonalLoop=1;jettySize=auto;html=1;exitX=1;exitY=0.5;exitDx=0;exitDy=0;entryX=0;entryY=0;entryDx=0;entryDy=0;" parent="1" source="6a3gbyVTUJdRKcO8Yb8x-44" target="6a3gbyVTUJdRKcO8Yb8x-36" edge="1">
          <mxGeometry relative="1" as="geometry">
            <mxPoint x="407" y="350" as="targetPoint" />
            <Array as="points">
              <mxPoint x="280" y="425" />
            </Array>
          </mxGeometry>
        </mxCell>
        <mxCell id="6a3gbyVTUJdRKcO8Yb8x-44" value="Searches&lt;br&gt;0..* / 0..*" style="rhombus;whiteSpace=wrap;html=1;" parent="1" vertex="1">
          <mxGeometry x="200" y="380.5" width="80" height="80" as="geometry" />
        </mxCell>
        <mxCell id="6a3gbyVTUJdRKcO8Yb8x-46" style="edgeStyle=orthogonalEdgeStyle;rounded=0;orthogonalLoop=1;jettySize=auto;html=1;entryX=0;entryY=0.5;entryDx=0;entryDy=0;exitX=0.007;exitY=0.933;exitDx=0;exitDy=0;exitPerimeter=0;" parent="1" source="C-vyLk0tnHw3VtMMgP7b-3" target="6a3gbyVTUJdRKcO8Yb8x-44" edge="1">
          <mxGeometry relative="1" as="geometry">
            <Array as="points">
              <mxPoint x="180" y="258" />
              <mxPoint x="180" y="421" />
            </Array>
            <mxPoint x="190" y="250" as="sourcePoint" />
          </mxGeometry>
        </mxCell>
        <mxCell id="wx3--FIx8wRdteSqaftg-1" value="Bid&lt;br&gt;0..* / 0..*&amp;nbsp;" style="rhombus;whiteSpace=wrap;html=1;" parent="1" vertex="1">
          <mxGeometry x="310" y="510" width="80" height="80" as="geometry" />
        </mxCell>
        <mxCell id="wx3--FIx8wRdteSqaftg-5" style="edgeStyle=orthogonalEdgeStyle;rounded=0;orthogonalLoop=1;jettySize=auto;html=1;entryX=0;entryY=0.5;entryDx=0;entryDy=0;exitX=0;exitY=0.5;exitDx=0;exitDy=0;" parent="1" source="C-vyLk0tnHw3VtMMgP7b-3" target="wx3--FIx8wRdteSqaftg-1" edge="1">
          <mxGeometry relative="1" as="geometry">
            <mxPoint x="250" y="240" as="sourcePoint" />
            <mxPoint x="170" y="340" as="targetPoint" />
            <Array as="points">
              <mxPoint x="130" y="245" />
              <mxPoint x="130" y="550" />
            </Array>
          </mxGeometry>
        </mxCell>
        <mxCell id="wx3--FIx8wRdteSqaftg-6" style="edgeStyle=orthogonalEdgeStyle;rounded=0;orthogonalLoop=1;jettySize=auto;html=1;exitX=1;exitY=0.5;exitDx=0;exitDy=0;entryX=0;entryY=0.5;entryDx=0;entryDy=0;" parent="1" source="wx3--FIx8wRdteSqaftg-1" target="6a3gbyVTUJdRKcO8Yb8x-40" edge="1">
          <mxGeometry relative="1" as="geometry">
            <mxPoint x="40" y="510" as="sourcePoint" />
            <mxPoint x="300" y="560" as="targetPoint" />
          </mxGeometry>
        </mxCell>
        <mxCell id="wx3--FIx8wRdteSqaftg-12" value="Adds&lt;br&gt;0..* / 0..*" style="rhombus;whiteSpace=wrap;html=1;" parent="1" vertex="1">
          <mxGeometry x="60" y="670" width="80" height="80" as="geometry" />
        </mxCell>
        <mxCell id="wx3--FIx8wRdteSqaftg-13" style="edgeStyle=orthogonalEdgeStyle;rounded=0;orthogonalLoop=1;jettySize=auto;html=1;entryX=0.5;entryY=0;entryDx=0;entryDy=0;exitX=-0.006;exitY=0.923;exitDx=0;exitDy=0;exitPerimeter=0;" parent="1" source="6a3gbyVTUJdRKcO8Yb8x-37" target="wx3--FIx8wRdteSqaftg-12" edge="1">
          <mxGeometry relative="1" as="geometry">
            <mxPoint x="270" y="380" as="sourcePoint" />
            <mxPoint x="80" y="510" as="targetPoint" />
            <Array as="points">
              <mxPoint x="100" y="492" />
            </Array>
          </mxGeometry>
        </mxCell>
        <mxCell id="wx3--FIx8wRdteSqaftg-14" style="edgeStyle=orthogonalEdgeStyle;rounded=0;orthogonalLoop=1;jettySize=auto;html=1;entryX=0.5;entryY=0;entryDx=0;entryDy=0;exitX=0.5;exitY=1;exitDx=0;exitDy=0;" parent="1" source="wx3--FIx8wRdteSqaftg-12" target="lxqCX38mrg4tKDXiwQsC-16" edge="1">
          <mxGeometry relative="1" as="geometry">
            <mxPoint x="130" y="620" as="sourcePoint" />
            <mxPoint x="660" y="650.06" as="targetPoint" />
            <Array as="points">
              <mxPoint x="100" y="770" />
              <mxPoint x="100" y="770" />
            </Array>
          </mxGeometry>
        </mxCell>
        <mxCell id="ns8veMdd_7WvEedU-JZv-32" style="edgeStyle=orthogonalEdgeStyle;rounded=0;orthogonalLoop=1;jettySize=auto;html=1;exitX=0.5;exitY=1;exitDx=0;exitDy=0;" parent="1" source="wx3--FIx8wRdteSqaftg-41" target="wx3--FIx8wRdteSqaftg-28" edge="1">
          <mxGeometry relative="1" as="geometry" />
        </mxCell>
        <mxCell id="wx3--FIx8wRdteSqaftg-41" value="Has&lt;br&gt;0..* / 1 &amp;nbsp;" style="rhombus;whiteSpace=wrap;html=1;" parent="1" vertex="1">
          <mxGeometry x="730" y="508" width="80" height="85" as="geometry" />
        </mxCell>
        <mxCell id="wx3--FIx8wRdteSqaftg-59" value="Added a few bits, will have another look later tonight after the football. Bit confused about &#39;recommendations&#39; still. I also think the &#39;auctions&#39; entity is a bit redundant, I reckon we lump it into &#39;items&#39;.&amp;nbsp;&lt;br&gt;&lt;br&gt;Or, we have the &#39;auction&#39; coming off the &#39;items&#39; bit, such that each item when it is listed by a seller generates an auction? Let me know what you think\&lt;br&gt;&lt;br&gt;&amp;lt;--------- cont" style="shape=note;size=20;whiteSpace=wrap;html=1;" parent="1" vertex="1">
          <mxGeometry x="960" y="35.5" width="210" height="210" as="geometry" />
        </mxCell>
        <mxCell id="wx3--FIx8wRdteSqaftg-60" value="Ive also made category its own derived entity as reckon it needs it. Will be helpful for reccos. I reckon we do the arrows together on zoom&lt;br&gt;&lt;br&gt;-Will" style="shape=note;size=20;whiteSpace=wrap;html=1;" parent="1" vertex="1">
          <mxGeometry x="975" y="285.5" width="180" height="175" as="geometry" />
        </mxCell>
        <mxCell id="SeLM_r5bs1obFx1jlG_9-7" style="edgeStyle=orthogonalEdgeStyle;rounded=0;orthogonalLoop=1;jettySize=auto;html=1;exitX=1;exitY=0.5;exitDx=0;exitDy=0;entryX=0;entryY=0.5;entryDx=0;entryDy=0;" parent="1" source="lxqCX38mrg4tKDXiwQsC-17" target="SeLM_r5bs1obFx1jlG_9-10" edge="1">
          <mxGeometry relative="1" as="geometry">
            <Array as="points">
              <mxPoint x="185" y="1000" />
            </Array>
            <mxPoint x="360" y="995" as="targetPoint" />
          </mxGeometry>
        </mxCell>
        <mxCell id="SeLM_r5bs1obFx1jlG_9-12" style="edgeStyle=orthogonalEdgeStyle;rounded=0;orthogonalLoop=1;jettySize=auto;html=1;exitX=1;exitY=0.5;exitDx=0;exitDy=0;entryX=0;entryY=0.5;entryDx=0;entryDy=0;" parent="1" source="SeLM_r5bs1obFx1jlG_9-10" target="wx3--FIx8wRdteSqaftg-47" edge="1">
          <mxGeometry relative="1" as="geometry" />
        </mxCell>
        <mxCell id="6a3gbyVTUJdRKcO8Yb8x-36" value="Auctions/Items" style="shape=table;startSize=30;container=1;collapsible=1;childLayout=tableLayout;fixedRows=1;rowLines=0;fontStyle=1;align=center;resizeLast=1;" parent="1" vertex="1">
          <mxGeometry x="460" y="425" width="170" height="180" as="geometry">
            <mxRectangle x="340" y="20" width="70" height="30" as="alternateBounds" />
          </mxGeometry>
        </mxCell>
        <mxCell id="6a3gbyVTUJdRKcO8Yb8x-37" value="" style="shape=partialRectangle;collapsible=0;dropTarget=0;pointerEvents=0;fillColor=none;points=[[0,0.5],[1,0.5]];portConstraint=eastwest;top=0;left=0;right=0;bottom=1;" parent="6a3gbyVTUJdRKcO8Yb8x-36" vertex="1">
          <mxGeometry y="30" width="170" height="40" as="geometry" />
        </mxCell>
        <mxCell id="6a3gbyVTUJdRKcO8Yb8x-38" value="PK&#xa;FK" style="shape=partialRectangle;overflow=hidden;connectable=0;fillColor=none;top=0;left=0;bottom=0;right=0;fontStyle=1;" parent="6a3gbyVTUJdRKcO8Yb8x-37" vertex="1">
          <mxGeometry width="30" height="40" as="geometry" />
        </mxCell>
        <mxCell id="6a3gbyVTUJdRKcO8Yb8x-39" value="auctionID&#xa;userID, categoryID" style="shape=partialRectangle;overflow=hidden;connectable=0;fillColor=none;top=0;left=0;bottom=0;right=0;align=left;spacingLeft=6;fontStyle=5;" parent="6a3gbyVTUJdRKcO8Yb8x-37" vertex="1">
          <mxGeometry x="30" width="140" height="40" as="geometry" />
        </mxCell>
        <mxCell id="6a3gbyVTUJdRKcO8Yb8x-40" value="" style="shape=partialRectangle;collapsible=0;dropTarget=0;pointerEvents=0;fillColor=none;points=[[0,0.5],[1,0.5]];portConstraint=eastwest;top=0;left=0;right=0;bottom=0;" parent="6a3gbyVTUJdRKcO8Yb8x-36" vertex="1">
          <mxGeometry y="70" width="170" height="110" as="geometry" />
        </mxCell>
        <mxCell id="6a3gbyVTUJdRKcO8Yb8x-41" value="" style="shape=partialRectangle;overflow=hidden;connectable=0;fillColor=none;top=0;left=0;bottom=0;right=0;" parent="6a3gbyVTUJdRKcO8Yb8x-40" vertex="1">
          <mxGeometry width="30" height="110" as="geometry" />
        </mxCell>
        <mxCell id="6a3gbyVTUJdRKcO8Yb8x-42" value="title&#xa;description&#xa;startDate&#xa;endDate&#xa;startPrice&#xa;reservePrice&#xa;buyNowPrice" style="shape=partialRectangle;overflow=hidden;connectable=0;fillColor=none;top=0;left=0;bottom=0;right=0;align=left;spacingLeft=6;" parent="6a3gbyVTUJdRKcO8Yb8x-40" vertex="1">
          <mxGeometry x="30" width="140" height="110" as="geometry" />
        </mxCell>
        <mxCell id="SeLM_r5bs1obFx1jlG_9-10" value="Category Interest&lt;br&gt;0..* / 0..*" style="rhombus;whiteSpace=wrap;html=1;" parent="1" vertex="1">
          <mxGeometry x="360" y="960" width="80" height="80" as="geometry" />
        </mxCell>
        <mxCell id="SeLM_r5bs1obFx1jlG_9-11" style="edgeStyle=orthogonalEdgeStyle;rounded=0;orthogonalLoop=1;jettySize=auto;html=1;exitX=0;exitY=0.5;exitDx=0;exitDy=0;entryX=1;entryY=0;entryDx=0;entryDy=0;" parent="1" source="lxqCX38mrg4tKDXiwQsC-5" target="SeLM_r5bs1obFx1jlG_9-10" edge="1">
          <mxGeometry relative="1" as="geometry">
            <Array as="points">
              <mxPoint x="420" y="860" />
            </Array>
          </mxGeometry>
        </mxCell>
        <mxCell id="SeLM_r5bs1obFx1jlG_9-14" value="Not sure about the dashed &lt;br&gt;arrow but the searches could &lt;br&gt;produce recommandations &lt;br&gt;as well ???&lt;br&gt;&lt;br&gt;Theo" style="shape=note;size=20;whiteSpace=wrap;html=1;" parent="1" vertex="1">
          <mxGeometry x="975" y="505" width="180" height="110" as="geometry" />
        </mxCell>
        <mxCell id="PlVSDmHrNCxfG3lxqQtc-4" style="edgeStyle=orthogonalEdgeStyle;rounded=0;orthogonalLoop=1;jettySize=auto;html=1;exitX=1;exitY=0.5;exitDx=0;exitDy=0;" parent="1" source="ns8veMdd_7WvEedU-JZv-23" edge="1">
          <mxGeometry relative="1" as="geometry">
            <Array as="points">
              <mxPoint x="900" y="1090" />
              <mxPoint x="900" y="37" />
              <mxPoint x="510" y="37" />
            </Array>
            <mxPoint x="510" y="45" as="targetPoint" />
          </mxGeometry>
        </mxCell>
        <mxCell id="PlVSDmHrNCxfG3lxqQtc-1" value="Recomm.&lt;br&gt;Notification&lt;br&gt;1 / 1..*" style="rhombus;whiteSpace=wrap;html=1;" parent="1" vertex="1">
          <mxGeometry x="750" y="960" width="80" height="80" as="geometry" />
        </mxCell>
        <mxCell id="PlVSDmHrNCxfG3lxqQtc-3" style="edgeStyle=orthogonalEdgeStyle;rounded=0;orthogonalLoop=1;jettySize=auto;html=1;exitX=0.498;exitY=1.035;exitDx=0;exitDy=0;entryX=0;entryY=0.5;entryDx=0;entryDy=0;exitPerimeter=0;" parent="1" source="lxqCX38mrg4tKDXiwQsC-20" target="ns8veMdd_7WvEedU-JZv-23" edge="1">
          <mxGeometry relative="1" as="geometry">
            <Array as="points">
              <mxPoint x="100" y="1090" />
            </Array>
          </mxGeometry>
        </mxCell>
        <mxCell id="PlVSDmHrNCxfG3lxqQtc-5" style="edgeStyle=orthogonalEdgeStyle;rounded=0;orthogonalLoop=1;jettySize=auto;html=1;entryX=0;entryY=0.5;entryDx=0;entryDy=0;exitX=1;exitY=0.5;exitDx=0;exitDy=0;" parent="1" source="wx3--FIx8wRdteSqaftg-47" target="PlVSDmHrNCxfG3lxqQtc-1" edge="1">
          <mxGeometry relative="1" as="geometry">
            <mxPoint x="410" y="940" as="targetPoint" />
            <Array as="points">
              <mxPoint x="700" y="1000" />
              <mxPoint x="700" y="1000" />
            </Array>
            <mxPoint x="680" y="1030" as="sourcePoint" />
          </mxGeometry>
        </mxCell>
        <mxCell id="PlVSDmHrNCxfG3lxqQtc-12" style="edgeStyle=orthogonalEdgeStyle;rounded=0;orthogonalLoop=1;jettySize=auto;html=1;exitX=1;exitY=0.5;exitDx=0;exitDy=0;entryX=0;entryY=0.5;entryDx=0;entryDy=0;" parent="1" source="lxqCX38mrg4tKDXiwQsC-5" target="ns8veMdd_7WvEedU-JZv-25" edge="1">
          <mxGeometry relative="1" as="geometry">
            <mxPoint x="740" y="810" as="targetPoint" />
            <Array as="points">
              <mxPoint x="640" y="860" />
              <mxPoint x="640" y="910" />
            </Array>
          </mxGeometry>
        </mxCell>
        <mxCell id="ns8veMdd_7WvEedU-JZv-3" value="" style="endArrow=none;dashed=1;html=1;entryX=0.5;entryY=1;entryDx=0;entryDy=0;exitX=0.5;exitY=0;exitDx=0;exitDy=0;" parent="1" source="lxqCX38mrg4tKDXiwQsC-1" target="wx3--FIx8wRdteSqaftg-1" edge="1">
          <mxGeometry width="50" height="50" relative="1" as="geometry">
            <mxPoint x="330" y="570" as="sourcePoint" />
            <mxPoint x="380" y="520" as="targetPoint" />
          </mxGeometry>
        </mxCell>
        <mxCell id="ns8veMdd_7WvEedU-JZv-7" style="edgeStyle=orthogonalEdgeStyle;rounded=0;orthogonalLoop=1;jettySize=auto;html=1;exitX=0.5;exitY=1;exitDx=0;exitDy=0;entryX=0.135;entryY=0;entryDx=0;entryDy=0;entryPerimeter=0;" parent="1" source="ns8veMdd_7WvEedU-JZv-6" target="lxqCX38mrg4tKDXiwQsC-16" edge="1">
          <mxGeometry relative="1" as="geometry">
            <Array as="points">
              <mxPoint x="38" y="588" />
            </Array>
          </mxGeometry>
        </mxCell>
        <mxCell id="ns8veMdd_7WvEedU-JZv-6" value="Views&lt;br&gt;0..* / 0..*" style="rhombus;whiteSpace=wrap;html=1;" parent="1" vertex="1">
          <mxGeometry y="507.5" width="80" height="80" as="geometry" />
        </mxCell>
        <mxCell id="ns8veMdd_7WvEedU-JZv-18" value="" style="endArrow=none;dashed=1;html=1;exitX=0.5;exitY=1;exitDx=0;exitDy=0;entryX=0.5;entryY=0;entryDx=0;entryDy=0;" parent="1" source="6a3gbyVTUJdRKcO8Yb8x-44" target="ns8veMdd_7WvEedU-JZv-11" edge="1">
          <mxGeometry width="50" height="50" relative="1" as="geometry">
            <mxPoint x="366" y="361" as="sourcePoint" />
            <mxPoint x="431" y="750" as="targetPoint" />
          </mxGeometry>
        </mxCell>
        <mxCell id="ns8veMdd_7WvEedU-JZv-22" style="edgeStyle=orthogonalEdgeStyle;rounded=0;orthogonalLoop=1;jettySize=auto;html=1;exitX=1;exitY=0.5;exitDx=0;exitDy=0;entryX=0;entryY=0;entryDx=0;entryDy=0;" parent="1" source="ns8veMdd_7WvEedU-JZv-15" target="SeLM_r5bs1obFx1jlG_9-10" edge="1">
          <mxGeometry relative="1" as="geometry" />
        </mxCell>
        <mxCell id="ns8veMdd_7WvEedU-JZv-24" style="edgeStyle=orthogonalEdgeStyle;rounded=0;orthogonalLoop=1;jettySize=auto;html=1;" parent="1" edge="1">
          <mxGeometry relative="1" as="geometry">
            <mxPoint x="900" y="1000" as="targetPoint" />
            <mxPoint x="830" y="1000" as="sourcePoint" />
          </mxGeometry>
        </mxCell>
        <mxCell id="ns8veMdd_7WvEedU-JZv-23" value="Outbid&amp;nbsp;&lt;br&gt;Notification&lt;br&gt;1 / 0..1" style="rhombus;whiteSpace=wrap;html=1;" parent="1" vertex="1">
          <mxGeometry x="750" y="1050" width="80" height="80" as="geometry" />
        </mxCell>
        <mxCell id="ns8veMdd_7WvEedU-JZv-26" style="edgeStyle=orthogonalEdgeStyle;rounded=0;orthogonalLoop=1;jettySize=auto;html=1;exitX=1;exitY=0.5;exitDx=0;exitDy=0;" parent="1" source="ns8veMdd_7WvEedU-JZv-25" edge="1">
          <mxGeometry relative="1" as="geometry">
            <mxPoint x="900" y="910" as="targetPoint" />
          </mxGeometry>
        </mxCell>
        <mxCell id="ns8veMdd_7WvEedU-JZv-25" value="Confirmation&amp;nbsp;&lt;br&gt;Notification&lt;br&gt;1 / 1" style="rhombus;whiteSpace=wrap;html=1;" parent="1" vertex="1">
          <mxGeometry x="750" y="870" width="80" height="80" as="geometry" />
        </mxCell>
        <mxCell id="ns8veMdd_7WvEedU-JZv-30" style="edgeStyle=orthogonalEdgeStyle;rounded=0;orthogonalLoop=1;jettySize=auto;html=1;exitX=1;exitY=0.5;exitDx=0;exitDy=0;entryX=0.5;entryY=0;entryDx=0;entryDy=0;" parent="1" source="ns8veMdd_7WvEedU-JZv-27" target="6a3gbyVTUJdRKcO8Yb8x-36" edge="1">
          <mxGeometry relative="1" as="geometry" />
        </mxCell>
        <mxCell id="ns8veMdd_7WvEedU-JZv-27" value="Buy Now&lt;br&gt;1 / 0..*" style="rhombus;whiteSpace=wrap;html=1;" parent="1" vertex="1">
          <mxGeometry x="350" y="301" width="80" height="80" as="geometry" />
        </mxCell>
        <mxCell id="ns8veMdd_7WvEedU-JZv-29" style="edgeStyle=orthogonalEdgeStyle;rounded=0;orthogonalLoop=1;jettySize=auto;html=1;exitX=0;exitY=0.5;exitDx=0;exitDy=0;entryX=0;entryY=0.5;entryDx=0;entryDy=0;" parent="1" source="C-vyLk0tnHw3VtMMgP7b-6" target="ns8veMdd_7WvEedU-JZv-27" edge="1">
          <mxGeometry relative="1" as="geometry" />
        </mxCell>
        <mxCell id="ns8veMdd_7WvEedU-JZv-31" style="edgeStyle=orthogonalEdgeStyle;rounded=0;orthogonalLoop=1;jettySize=auto;html=1;exitX=1;exitY=0.5;exitDx=0;exitDy=0;entryX=0;entryY=0.5;entryDx=0;entryDy=0;" parent="1" source="6a3gbyVTUJdRKcO8Yb8x-40" target="wx3--FIx8wRdteSqaftg-41" edge="1">
          <mxGeometry relative="1" as="geometry" />
        </mxCell>
        <mxCell id="ns8veMdd_7WvEedU-JZv-33" value="" style="endArrow=none;dashed=1;html=1;entryX=0.5;entryY=1;entryDx=0;entryDy=0;exitX=1;exitY=0;exitDx=0;exitDy=0;" parent="1" source="lxqCX38mrg4tKDXiwQsC-16" target="wx3--FIx8wRdteSqaftg-1" edge="1">
          <mxGeometry width="50" height="50" relative="1" as="geometry">
            <mxPoint x="250" y="625" as="sourcePoint" />
            <mxPoint x="180" y="515" as="targetPoint" />
          </mxGeometry>
        </mxCell>
        <mxCell id="wx3--FIx8wRdteSqaftg-46" value="Recommendations" style="shape=table;startSize=30;container=1;collapsible=1;childLayout=tableLayout;fixedRows=1;rowLines=0;fontStyle=1;align=center;resizeLast=1;" parent="1" vertex="1">
          <mxGeometry x="500" y="955" width="180" height="90" as="geometry" />
        </mxCell>
        <mxCell id="wx3--FIx8wRdteSqaftg-47" value="" style="shape=partialRectangle;collapsible=0;dropTarget=0;pointerEvents=0;fillColor=none;top=0;left=0;bottom=1;right=0;points=[[0,0.5],[1,0.5]];portConstraint=eastwest;" parent="wx3--FIx8wRdteSqaftg-46" vertex="1">
          <mxGeometry y="30" width="180" height="30" as="geometry" />
        </mxCell>
        <mxCell id="wx3--FIx8wRdteSqaftg-48" value="PK&#xa;FK" style="shape=partialRectangle;connectable=0;fillColor=none;top=0;left=0;bottom=0;right=0;fontStyle=1;overflow=hidden;" parent="wx3--FIx8wRdteSqaftg-47" vertex="1">
          <mxGeometry width="30" height="30" as="geometry" />
        </mxCell>
        <mxCell id="wx3--FIx8wRdteSqaftg-49" value="userID&#xa;categoryID" style="shape=partialRectangle;connectable=0;fillColor=none;top=0;left=0;bottom=0;right=0;align=left;spacingLeft=6;fontStyle=5;overflow=hidden;" parent="wx3--FIx8wRdteSqaftg-47" vertex="1">
          <mxGeometry x="30" width="150" height="30" as="geometry" />
        </mxCell>
        <mxCell id="wx3--FIx8wRdteSqaftg-50" value="" style="shape=partialRectangle;collapsible=0;dropTarget=0;pointerEvents=0;fillColor=none;top=0;left=0;bottom=0;right=0;points=[[0,0.5],[1,0.5]];portConstraint=eastwest;" parent="wx3--FIx8wRdteSqaftg-46" vertex="1">
          <mxGeometry y="60" width="180" height="30" as="geometry" />
        </mxCell>
        <mxCell id="wx3--FIx8wRdteSqaftg-51" value="" style="shape=partialRectangle;connectable=0;fillColor=none;top=0;left=0;bottom=0;right=0;editable=1;overflow=hidden;" parent="wx3--FIx8wRdteSqaftg-50" vertex="1">
          <mxGeometry width="30" height="30" as="geometry" />
        </mxCell>
        <mxCell id="wx3--FIx8wRdteSqaftg-52" value="userLastBid&#xa;" style="shape=partialRectangle;connectable=0;fillColor=none;top=0;left=0;bottom=0;right=0;align=left;spacingLeft=6;overflow=hidden;" parent="wx3--FIx8wRdteSqaftg-50" vertex="1">
          <mxGeometry x="30" width="150" height="30" as="geometry" />
        </mxCell>
        <mxCell id="wx3--FIx8wRdteSqaftg-28" value="Categories" style="shape=table;startSize=30;container=1;collapsible=1;childLayout=tableLayout;fixedRows=1;rowLines=0;fontStyle=1;align=center;resizeLast=1;" parent="1" vertex="1">
          <mxGeometry x="680" y="680" width="180" height="120" as="geometry" />
        </mxCell>
        <mxCell id="wx3--FIx8wRdteSqaftg-29" value="" style="shape=partialRectangle;collapsible=0;dropTarget=0;pointerEvents=0;fillColor=none;top=0;left=0;bottom=1;right=0;points=[[0,0.5],[1,0.5]];portConstraint=eastwest;" parent="wx3--FIx8wRdteSqaftg-28" vertex="1">
          <mxGeometry y="30" width="180" height="30" as="geometry" />
        </mxCell>
        <mxCell id="wx3--FIx8wRdteSqaftg-30" value="PK" style="shape=partialRectangle;connectable=0;fillColor=none;top=0;left=0;bottom=0;right=0;fontStyle=1;overflow=hidden;" parent="wx3--FIx8wRdteSqaftg-29" vertex="1">
          <mxGeometry width="29.999999999999996" height="30" as="geometry" />
        </mxCell>
        <mxCell id="wx3--FIx8wRdteSqaftg-31" value="categoryID" style="shape=partialRectangle;connectable=0;fillColor=none;top=0;left=0;bottom=0;right=0;align=left;spacingLeft=6;fontStyle=5;overflow=hidden;" parent="wx3--FIx8wRdteSqaftg-29" vertex="1">
          <mxGeometry x="29.999999999999996" width="150" height="30" as="geometry" />
        </mxCell>
        <mxCell id="wx3--FIx8wRdteSqaftg-35" value="" style="shape=partialRectangle;collapsible=0;dropTarget=0;pointerEvents=0;fillColor=none;top=0;left=0;bottom=0;right=0;points=[[0,0.5],[1,0.5]];portConstraint=eastwest;" parent="wx3--FIx8wRdteSqaftg-28" vertex="1">
          <mxGeometry y="60" width="180" height="60" as="geometry" />
        </mxCell>
        <mxCell id="wx3--FIx8wRdteSqaftg-36" value="" style="shape=partialRectangle;connectable=0;fillColor=none;top=0;left=0;bottom=0;right=0;editable=1;overflow=hidden;" parent="wx3--FIx8wRdteSqaftg-35" vertex="1">
          <mxGeometry width="29.999999999999996" height="60" as="geometry" />
        </mxCell>
        <mxCell id="wx3--FIx8wRdteSqaftg-37" value="name&#xa;description&#xa;no. of products in category" style="shape=partialRectangle;connectable=0;fillColor=none;top=0;left=0;bottom=0;right=0;align=left;spacingLeft=6;overflow=hidden;" parent="wx3--FIx8wRdteSqaftg-35" vertex="1">
          <mxGeometry x="29.999999999999996" width="150" height="60" as="geometry" />
        </mxCell>
        <mxCell id="lxqCX38mrg4tKDXiwQsC-1" value="Bids" style="shape=table;startSize=30;container=1;collapsible=1;childLayout=tableLayout;fixedRows=1;rowLines=0;fontStyle=1;align=center;resizeLast=1;" parent="1" vertex="1">
          <mxGeometry x="440" y="770" width="170" height="115" as="geometry">
            <mxRectangle x="340" y="20" width="70" height="30" as="alternateBounds" />
          </mxGeometry>
        </mxCell>
        <mxCell id="lxqCX38mrg4tKDXiwQsC-2" value="" style="shape=partialRectangle;collapsible=0;dropTarget=0;pointerEvents=0;fillColor=none;points=[[0,0.5],[1,0.5]];portConstraint=eastwest;top=0;left=0;right=0;bottom=1;" parent="lxqCX38mrg4tKDXiwQsC-1" vertex="1">
          <mxGeometry y="30" width="170" height="35" as="geometry" />
        </mxCell>
        <mxCell id="lxqCX38mrg4tKDXiwQsC-3" value="CK" style="shape=partialRectangle;overflow=hidden;connectable=0;fillColor=none;top=0;left=0;bottom=0;right=0;fontStyle=1;" parent="lxqCX38mrg4tKDXiwQsC-2" vertex="1">
          <mxGeometry width="30" height="35" as="geometry" />
        </mxCell>
        <mxCell id="lxqCX38mrg4tKDXiwQsC-4" value="auction id, buyer id, &#xa;bid price" style="shape=partialRectangle;overflow=hidden;connectable=0;fillColor=none;top=0;left=0;bottom=0;right=0;align=left;spacingLeft=6;fontStyle=5;" parent="lxqCX38mrg4tKDXiwQsC-2" vertex="1">
          <mxGeometry x="30" width="140" height="35" as="geometry" />
        </mxCell>
        <mxCell id="lxqCX38mrg4tKDXiwQsC-5" value="" style="shape=partialRectangle;collapsible=0;dropTarget=0;pointerEvents=0;fillColor=none;points=[[0,0.5],[1,0.5]];portConstraint=eastwest;top=0;left=0;right=0;bottom=0;" parent="lxqCX38mrg4tKDXiwQsC-1" vertex="1">
          <mxGeometry y="65" width="170" height="50" as="geometry" />
        </mxCell>
        <mxCell id="lxqCX38mrg4tKDXiwQsC-6" value="" style="shape=partialRectangle;overflow=hidden;connectable=0;fillColor=none;top=0;left=0;bottom=0;right=0;" parent="lxqCX38mrg4tKDXiwQsC-5" vertex="1">
          <mxGeometry width="30" height="50" as="geometry" />
        </mxCell>
        <mxCell id="lxqCX38mrg4tKDXiwQsC-7" value="bidDate&#xa;bidTime" style="shape=partialRectangle;overflow=hidden;connectable=0;fillColor=none;top=0;left=0;bottom=0;right=0;align=left;spacingLeft=6;" parent="lxqCX38mrg4tKDXiwQsC-5" vertex="1">
          <mxGeometry x="30" width="140" height="50" as="geometry" />
        </mxCell>
        <mxCell id="lxqCX38mrg4tKDXiwQsC-16" value="Watchlist" style="shape=table;startSize=30;container=1;collapsible=1;childLayout=tableLayout;fixedRows=1;rowLines=0;fontStyle=1;align=center;resizeLast=1;" parent="1" vertex="1">
          <mxGeometry x="140" y="860" width="170" height="100.00000000000045" as="geometry">
            <mxRectangle x="340" y="20" width="70" height="30" as="alternateBounds" />
          </mxGeometry>
        </mxCell>
        <mxCell id="lxqCX38mrg4tKDXiwQsC-17" value="" style="shape=partialRectangle;collapsible=0;dropTarget=0;pointerEvents=0;fillColor=none;points=[[0,0.5],[1,0.5]];portConstraint=eastwest;top=0;left=0;right=0;bottom=1;" parent="lxqCX38mrg4tKDXiwQsC-16" vertex="1">
          <mxGeometry y="30" width="170" height="30" as="geometry" />
        </mxCell>
        <mxCell id="lxqCX38mrg4tKDXiwQsC-18" value="CK" style="shape=partialRectangle;overflow=hidden;connectable=0;fillColor=none;top=0;left=0;bottom=0;right=0;fontStyle=1;" parent="lxqCX38mrg4tKDXiwQsC-17" vertex="1">
          <mxGeometry width="35" height="30" as="geometry" />
        </mxCell>
        <mxCell id="lxqCX38mrg4tKDXiwQsC-19" value="buyer id, auction id" style="shape=partialRectangle;overflow=hidden;connectable=0;fillColor=none;top=0;left=0;bottom=0;right=0;align=left;spacingLeft=6;fontStyle=5;" parent="lxqCX38mrg4tKDXiwQsC-17" vertex="1">
          <mxGeometry x="35" width="135" height="30" as="geometry" />
        </mxCell>
        <mxCell id="lxqCX38mrg4tKDXiwQsC-20" value="" style="shape=partialRectangle;collapsible=0;dropTarget=0;pointerEvents=0;fillColor=none;points=[[0,0.5],[1,0.5]];portConstraint=eastwest;top=0;left=0;right=0;bottom=0;" parent="lxqCX38mrg4tKDXiwQsC-16" vertex="1">
          <mxGeometry y="60" width="170" height="40" as="geometry" />
        </mxCell>
        <mxCell id="lxqCX38mrg4tKDXiwQsC-21" value="" style="shape=partialRectangle;overflow=hidden;connectable=0;fillColor=none;top=0;left=0;bottom=0;right=0;" parent="lxqCX38mrg4tKDXiwQsC-20" vertex="1">
          <mxGeometry width="35" height="40" as="geometry" />
        </mxCell>
        <mxCell id="lxqCX38mrg4tKDXiwQsC-22" value="" style="shape=partialRectangle;overflow=hidden;connectable=0;fillColor=none;top=0;left=0;bottom=0;right=0;align=left;spacingLeft=6;" parent="lxqCX38mrg4tKDXiwQsC-20" vertex="1">
          <mxGeometry x="35" width="135" height="40" as="geometry" />
        </mxCell>
        <mxCell id="ns8veMdd_7WvEedU-JZv-11" value="Searches" style="shape=table;startSize=30;container=1;collapsible=1;childLayout=tableLayout;fixedRows=1;rowLines=0;fontStyle=1;align=center;resizeLast=1;" parent="1" vertex="1">
          <mxGeometry x="155" y="630" width="170" height="80" as="geometry">
            <mxRectangle x="340" y="20" width="70" height="30" as="alternateBounds" />
          </mxGeometry>
        </mxCell>
        <mxCell id="ns8veMdd_7WvEedU-JZv-12" value="" style="shape=partialRectangle;collapsible=0;dropTarget=0;pointerEvents=0;fillColor=none;points=[[0,0.5],[1,0.5]];portConstraint=eastwest;top=0;left=0;right=0;bottom=1;" parent="ns8veMdd_7WvEedU-JZv-11" vertex="1">
          <mxGeometry y="30" width="170" height="30" as="geometry" />
        </mxCell>
        <mxCell id="ns8veMdd_7WvEedU-JZv-13" value="CK&#xa;FK" style="shape=partialRectangle;overflow=hidden;connectable=0;fillColor=none;top=0;left=0;bottom=0;right=0;fontStyle=1;" parent="ns8veMdd_7WvEedU-JZv-12" vertex="1">
          <mxGeometry width="30" height="30" as="geometry" />
        </mxCell>
        <mxCell id="ns8veMdd_7WvEedU-JZv-14" value="buyer id, date&#xa;categoryID" style="shape=partialRectangle;overflow=hidden;connectable=0;fillColor=none;top=0;left=0;bottom=0;right=0;align=left;spacingLeft=6;fontStyle=5;" parent="ns8veMdd_7WvEedU-JZv-12" vertex="1">
          <mxGeometry x="30" width="140" height="30" as="geometry" />
        </mxCell>
        <mxCell id="ns8veMdd_7WvEedU-JZv-15" value="" style="shape=partialRectangle;collapsible=0;dropTarget=0;pointerEvents=0;fillColor=none;points=[[0,0.5],[1,0.5]];portConstraint=eastwest;top=0;left=0;right=0;bottom=0;" parent="ns8veMdd_7WvEedU-JZv-11" vertex="1">
          <mxGeometry y="60" width="170" height="20" as="geometry" />
        </mxCell>
        <mxCell id="ns8veMdd_7WvEedU-JZv-16" value="" style="shape=partialRectangle;overflow=hidden;connectable=0;fillColor=none;top=0;left=0;bottom=0;right=0;" parent="ns8veMdd_7WvEedU-JZv-15" vertex="1">
          <mxGeometry width="30" height="20" as="geometry" />
        </mxCell>
        <mxCell id="ns8veMdd_7WvEedU-JZv-17" value="" style="shape=partialRectangle;overflow=hidden;connectable=0;fillColor=none;top=0;left=0;bottom=0;right=0;align=left;spacingLeft=6;" parent="ns8veMdd_7WvEedU-JZv-15" vertex="1">
          <mxGeometry x="30" width="140" height="20" as="geometry" />
        </mxCell>
      </root>
    </mxGraphModel>
  </diagram>
</mxfile>
